<?xml version="1.0" standalone="no"?>
<!DOCTYPE svg PUBLIC "-//W3C//DTD SVG 20010904//EN"
 "http://www.w3.org/TR/2001/REC-SVG-20010904/DTD/svg10.dtd">
<svg version="1.0" xmlns="http://www.w3.org/2000/svg"
 width="512.000000pt" height="512.000000pt" viewBox="0 0 512.000000 512.000000"
 preserveAspectRatio="xMidYMid meet">
<metadata>
Created by potrace 1.14, written by Peter Selinger 2001-2017
</metadata>
<g transform="translate(0.000000,512.000000) scale(0.100000,-0.100000)"
fill="#000000" stroke="none">
<path d="M925 3650 c-208 -28 -349 -107 -386 -216 -43 -131 15 -303 197 -582
41 -62 74 -115 74 -117 0 -3 -8 -5 -19 -5 -12 0 -20 -9 -23 -25 -7 -32 -3 -35
48 -35 24 0 45 -4 48 -9 6 -9 9 -93 7 -183 l-1 -47 -51 -3 c-48 -3 -52 -5 -55
-30 l-3 -28 145 0 c126 0 144 2 144 16 0 49 241 -357 299 -503 l20 -51 -87
-27 c-383 -119 -621 -247 -683 -367 -23 -44 -24 -67 -5 -112 61 -145 433 -169
659 -43 78 44 163 123 200 187 14 25 32 72 40 105 14 58 14 76 6 170 l-4 39
95 23 c76 18 236 52 455 97 395 82 716 188 813 271 41 34 63 75 55 103 -11 45
-54 38 -151 -24 -115 -74 -296 -148 -507 -206 -60 -16 -117 -31 -125 -33 -32
-7 -386 -86 -400 -90 -86 -21 -144 -36 -193 -49 -60 -17 -77 -15 -77 8 0 26
-99 214 -167 316 -38 58 -131 189 -206 292 -90 122 -137 195 -137 211 0 19 -6
26 -22 29 -29 4 -179 224 -248 363 -78 158 -96 254 -61 323 58 114 201 156
526 157 232 0 314 -8 467 -45 263 -65 354 -197 272 -393 -35 -83 -80 -149
-172 -253 -42 -48 -85 -97 -95 -110 -24 -31 -37 -78 -27 -95 5 -7 2 -28 -6
-48 -35 -84 0 -208 71 -248 45 -25 131 -27 179 -3 35 18 40 29 21 53 -11 16
-17 17 -36 6 -39 -20 -95 -22 -122 -4 -22 14 -47 60 -47 85 0 4 48 7 108 8 59
0 113 0 120 1 15 1 16 52 2 103 -13 47 -59 93 -100 102 l-32 6 60 72 c103 127
164 234 196 345 18 63 14 174 -7 223 -60 135 -211 221 -450 255 -27 3 -59 9
-70 11 -40 9 -491 12 -552 4z m864 -991 c10 -11 21 -34 23 -50 l5 -29 -84 0
c-46 0 -83 4 -83 9 0 19 19 58 35 74 23 24 80 22 104 -4z m-795 -176 l38 -53
-41 0 -41 0 0 57 c0 31 1 54 3 52 2 -2 20 -28 41 -56z m399 -759 c2 -14 3 -50
1 -81 -11 -188 -219 -338 -484 -348 -127 -5 -240 36 -240 86 0 51 140 156 306
229 101 45 366 138 395 139 10 1 19 -9 22 -25z"/>
<path d="M2905 3646 c-217 -35 -333 -106 -368 -224 -40 -134 20 -299 215 -594
l98 -148 -17 -26 c-11 -17 -18 -50 -19 -93 -5 -142 78 -217 219 -196 l42 6 77
-123 c119 -191 151 -251 198 -369 l19 -46 -157 -52 c-356 -117 -565 -236 -617
-351 -37 -81 9 -157 120 -200 53 -21 76 -24 200 -24 125 0 149 3 221 27 146
49 277 152 328 261 37 79 46 140 35 251 l-4 39 95 23 c73 18 379 83 600 128
160 33 462 128 567 179 110 54 173 120 158 166 -13 42 -57 35 -153 -26 -171
-111 -478 -213 -862 -289 -8 -2 -33 -8 -55 -14 -22 -5 -53 -13 -70 -16 -16 -2
-90 -21 -164 -40 -132 -34 -151 -36 -151 -11 0 24 -97 211 -154 295 -31 46
-56 85 -56 87 0 2 -38 56 -85 119 -93 125 -106 148 -84 145 48 -7 52 -2 46 54
-10 104 -57 150 -157 152 l-65 1 -87 129 c-134 198 -218 380 -218 469 0 176
178 247 595 240 207 -4 215 -5 354 -31 368 -68 456 -244 266 -529 -73 -110
-94 -128 -157 -134 -5 -1 -8 -14 -8 -30 0 -16 -15 -51 -34 -79 -47 -70 -38
-111 22 -103 13 2 15 -22 13 -196 l-1 -103 40 0 40 0 0 128 c0 70 4 132 8 138
14 20 57 44 78 44 41 0 47 -22 46 -170 l0 -140 40 0 39 0 -3 160 c-3 150 -4
161 -26 182 -32 32 -108 32 -151 0 -53 -39 -38 1 30 81 34 39 82 102 106 140
243 375 112 638 -352 703 -27 3 -59 9 -70 11 -53 12 -495 11 -570 -1z m119
-985 c9 -10 21 -33 26 -50 8 -29 7 -32 -11 -29 -12 2 -37 24 -56 51 l-35 47
29 0 c17 0 37 -8 47 -19z m-110 -66 c3 -9 0 -15 -9 -15 -8 0 -15 7 -15 15 0 8
4 15 9 15 5 0 11 -7 15 -15z m69 -99 c13 -17 29 -42 36 -54 12 -23 12 -24 -26
-21 -50 4 -79 23 -92 61 -16 45 -15 48 24 46 27 -1 41 -9 58 -32z m410 -771
c2 -14 3 -52 1 -83 -13 -184 -200 -324 -467 -348 -118 -10 -247 32 -255 83 -8
54 145 166 338 249 80 34 339 122 361 123 10 1 19 -9 22 -24z"/>
<path d="M4198 2898 c-68 -69 -108 -157 -115 -247 -10 -134 31 -242 125 -334
l50 -49 20 23 21 22 -43 48 c-74 82 -90 127 -90 249 -1 122 13 161 87 252 43
53 45 57 28 72 -10 9 -21 16 -25 16 -4 0 -30 -24 -58 -52z"/>
<path d="M4538 2933 c-16 -15 -14 -20 27 -68 70 -81 88 -132 89 -250 1 -125
-23 -187 -108 -277 l-26 -27 22 -21 22 -20 44 42 c95 94 132 187 129 322 -3
71 -8 93 -36 150 -30 62 -116 166 -137 166 -6 0 -17 -7 -26 -17z"/>
<path d="M866 2894 c-24 -23 -20 -59 9 -74 20 -11 28 -10 50 4 30 20 34 61 6
76 -27 14 -47 13 -65 -6z"/>
<path d="M1302 2870 c-50 -31 -56 -45 -61 -142 -1 -14 -10 -18 -41 -18 -38 0
-40 -2 -40 -29 0 -28 3 -30 42 -33 l42 -3 -1 -137 -1 -138 39 0 39 0 0 140 0
139 58 3 c53 3 57 5 57 28 0 23 -4 25 -57 28 l-58 3 0 43 c0 63 24 81 94 72
48 -5 57 -4 66 13 14 28 14 28 -24 41 -46 15 -121 10 -154 -10z"/>
<path d="M302 2853 c3 -26 7 -28 51 -30 27 -1 51 -3 53 -5 2 -2 4 -88 5 -191
2 -162 5 -191 21 -217 23 -39 60 -53 121 -47 56 5 69 14 61 45 -6 19 -11 21
-50 18 -73 -7 -74 -6 -74 240 l0 214 -96 0 -95 0 3 -27z"/>
<path d="M2369 2843 c0 -5 -2 -18 -3 -30 -3 -25 -3 -25 84 -27 l55 -1 3 -208
2 -207 40 0 40 0 2 207 3 207 62 1 c34 0 64 3 67 5 2 3 6 16 8 30 l3 25 -182
3 c-101 1 -183 -1 -184 -5z"/>
<path d="M3330 2724 c-95 -40 -131 -176 -76 -282 37 -72 144 -102 229 -64 52
23 56 31 29 56 -18 15 -22 15 -57 0 -79 -33 -145 17 -145 110 0 50 27 111 55
124 27 12 92 7 112 -10 11 -9 19 -6 36 11 l22 22 -25 19 c-44 33 -122 39 -180
14z"/>
<path d="M2086 2468 c-22 -30 -20 -60 4 -86 40 -43 110 -14 110 46 0 58 -82
86 -114 40z"/>
</g>
</svg>
